<svg width="18" height="18" viewBox="0 0 18 18" fill="none" xmlns="http://www.w3.org/2000/svg">
<path fill-rule="evenodd" clip-rule="evenodd" d="M0.666748 9.00002C0.666748 4.39765 4.39771 0.666687 9.00008 0.666687C13.6025 0.666687 17.3334 4.39765 17.3334 9.00002C17.3334 13.6024 13.6025 17.3334 9.00008 17.3334C4.39771 17.3334 0.666748 13.6024 0.666748 9.00002ZM9.00792 7.31231C9.47398 7.31231 9.8518 6.93449 9.8518 6.46843C9.8518 6.00237 9.47398 5.62455 9.00792 5.62455H9.00032C8.53426 5.62455 8.15644 6.00237 8.15644 6.46843C8.15644 6.93449 8.53426 7.31231 9.00032 7.31231H9.00792ZM8.16404 12.0381C8.16404 12.5041 8.54185 12.8819 9.00792 12.8819C9.47398 12.8819 9.8518 12.5041 9.8518 12.0381V9.00008C9.8518 8.53401 9.47398 8.1562 9.00792 8.1562C8.54185 8.1562 8.16404 8.53401 8.16404 9.00008V12.0381Z" fill="#4C95EB"/>
</svg>
