<svg width="18" height="16" viewBox="0 0 18 16" fill="none" xmlns="http://www.w3.org/2000/svg">
<path fill-rule="evenodd" clip-rule="evenodd" d="M7.94193 0.785109C8.26329 0.598816 8.62782 0.499939 9.00008 0.499939C9.37235 0.499939 9.73688 0.598816 10.0582 0.785109C10.3794 0.971287 10.6455 1.23777 10.8333 1.55645L10.8351 1.55958L17.0525 12.2469C17.2362 12.5745 17.3324 12.944 17.3334 13.319C17.3344 13.6941 17.2401 14.0641 17.0583 14.3927C16.8763 14.7214 16.6122 14.9984 16.2897 15.1938C15.9669 15.3893 15.598 15.4956 15.2198 15.4999L15.2122 15.4999L2.78032 15.4999C2.40212 15.4956 2.03321 15.3893 1.7105 15.1938C1.38799 14.9984 1.12386 14.7214 0.9419 14.3927C0.760016 14.0641 0.665736 13.6941 0.666756 13.319C0.667776 12.944 0.764068 12.5745 0.947767 12.2469L0.952888 12.2378L7.16507 1.55959L7.1669 1.55645C7.35464 1.23777 7.62077 0.971287 7.94193 0.785109ZM9.76605 6.48119C9.76605 6.06174 9.42297 5.7217 8.99976 5.7217C8.57656 5.7217 8.23348 6.06174 8.23348 6.48119V9.09812C8.23348 9.51757 8.57656 9.85761 8.99976 9.85761C9.42297 9.85761 9.76605 9.51757 9.76605 9.09812V6.48119ZM8.99976 11.0381C8.57656 11.0381 8.23348 11.3782 8.23348 11.7976C8.23348 12.2171 8.57656 12.5571 8.99976 12.5571H9.00636C9.42957 12.5571 9.77265 12.2171 9.77265 11.7976C9.77265 11.3782 9.42957 11.0381 9.00636 11.0381H8.99976Z" fill="#EB854C"/>
</svg>
